<svg version="1" xmlns="http://www.w3.org/2000/svg" width="933.333" height="933.333" viewBox="0 0 700.000000 700.000000"><path d="M145.5 1c-2.7.4-7.1 1-9.6 1.4-12.3 1.7-28.7 7-43.4 14.1-31.5 15.2-56 38.7-72.8 69.7C13.8 97.1 6.3 116.3 4.6 125c-.2 1.4-.9 4.5-1.5 7-.5 2.5-1.4 7.4-1.8 11-1 8.3-1.1 402.9 0 413.2 1 10.5 5.6 28.1 10.6 40.8 7.7 19.8 20.6 39.2 36.4 55 10.4 10.4 11.6 11.3 24.6 20.1 16 10.8 33.3 18.4 52.6 23.3 5.9 1.4 7.7 1.8 18 3.3 6.3 1 402.4 1.1 412 .1 3.9-.4 7.7-.9 8.5-1.2.8-.3 2.9-.7 4.5-.9 5.2-.8 15.2-3.7 23.8-6.8 27.1-10 50.4-26.2 68.7-47.9 3-3.6 5.7-6.7 6-7 .3-.3 1-1.2 1.5-2.1.6-.9 2.9-4.5 5.3-8 8.8-13.1 19.9-39.4 21.8-51.7.3-2 .8-4 1.1-4.4.2-.5 1-5.4 1.8-11 1.1-8.5 1.4-45.3 1.4-208.3 0-117-.4-200.7-1-204.5-.5-3.6-1.2-8.3-1.5-10.5-.3-2.2-.7-4.2-.9-4.6-.2-.3-.7-2.1-1-4-1.2-7-8.8-27.6-13.7-36.8-17.5-33.5-42.7-57.7-76.8-73.9-12-5.7-27.3-10.4-45.5-13.8-5.2-1-407.4-1.4-414-.4z"/></svg>